<svg id="Layer_1" enable-background="new 0 0 512 512" height="512" viewBox="0 0 512 512" width="512" xmlns="http://www.w3.org/2000/svg"><path d="m487.882 371.639-15.188-62.653c-6.366-26.265-25.187-47.842-50.343-57.717-2.347-.916 13.374 5.004-60.824-22.761-4.137-1.548-8.748.551-10.296 4.688-1.549 4.138.551 8.748 4.688 10.296l60.645 22.692c20.277 7.983 35.445 25.388 40.581 46.57l15.188 62.653c6.516 26.876-6.859 55.05-31.804 66.991l-22.531 10.786v-147.184c0-17.645-14.355-32-32-32h-260c-17.645 0-32 14.355-32 32v147.186l-22.531-10.786c-24.944-11.941-38.319-40.115-31.804-66.991l15.188-62.653c5.136-21.184 20.304-38.589 40.583-46.57l83.173-31.123c15.063 11.898 37.181 31.45 77.319 31.45 24.074-.089 47.676-8.432 66.457-23.492l26.688-21.4c17.563-14.084 25.422-37.306 20.022-59.159-5.417-21.925-18.276-73.975-22.646-91.663-10.297-41.686-47.477-70.799-90.414-70.799-42.981 0-80.171 29.15-90.438 70.888-3.484 14.164-17.245 70.11-22.782 92.621-5.415 22.013 2.581 45.316 20.369 59.367 1.088.86 8.991-2.489-73.416 28.347-22.736 8.318-43.661 29.707-50.463 57.763l-15.188 62.653c-8.302 34.248 8.443 69.871 40.445 85.192l29.44 14.093v9.076c0 17.645 14.355 32 32 32h260c17.645 0 32-14.355 32-32v-9.076l29.439-14.093c31.783-15.217 48.804-50.71 40.443-85.192zm-231.849-355.639c35.561 0 66.353 24.111 74.882 58.635l7.992 32.351c-49.38-36.196-116.174-36.304-165.692-.091l7.916-32.184c8.504-34.568 39.304-58.711 74.902-58.711zm-.035 192.541c-4.418 0-8 3.582-8 8v9.198c-1.322-.767.43.49-23.948-17.978-16.726-12.672-27.136-31.945-28.562-52.88l-2.839-41.676c39.037-23.149 87.373-23.322 126.697 0l-2.839 41.676c-1.426 20.935-11.837 40.209-28.563 52.88-23.925 18.124-22.614 17.203-23.947 17.978v-9.197c.001-4.419-3.581-8.001-7.999-8.001zm-97.648-41.21 8.236-33.482c3.399-3.534 6.992-6.849 10.757-9.931l2.183 32.05c1.74 25.552 14.447 49.078 34.863 64.546 23.309 17.658 27.535 22.655 39.922 23.303 1.099.236 2.218.249 3.376 0 6.228-.327 12.38-2.438 17.583-6.38l22.339-16.923c20.415-15.467 33.122-38.993 34.863-64.546l2.183-32.049c3.831 3.135 7.484 6.512 10.936 10.115l7.971 32.263c3.91 15.825-1.781 32.641-14.499 42.839l-26.688 21.4c-33.187 26.612-79.719 26.828-113.157.415l-26.118-20.63c-12.882-10.175-18.672-27.05-14.75-42.99zm243.648 312.669c0 8.822-7.178 16-16 16h-260c-8.447 0-16-6.685-16-16.333h261c4.418 0 8-3.582 8-8s-3.582-8-8-8h-261v-157.667c0-8.822 7.178-16 16-16h260c8.822 0 16 7.178 16 16z"/><path d="m287.165 182.954c3.124-3.125 3.124-8.189 0-11.314-3.125-3.123-8.189-3.123-11.314 0l-4.369 4.37h-5.457l-4.369-4.37c-3.123-3.121-8.189-3.123-11.314 0l-4.37 4.37h-5.457l-4.37-4.37c-3.124-3.123-8.19-3.124-11.314.001-3.124 3.124-3.124 8.189 0 11.313 6.491 6.49 8.071 9.056 12.37 9.056 14.319 0 14.536.862 18.797-3.399 4.192 4.196 4.174 3.399 18.797 3.399 4.056 0 5.113-1.799 12.37-9.056z"/><path d="m237.645 140.349c4.039 1.797 8.765-.023 10.56-4.062 4.232-9.521-9.728-16.224-21.962-9.757-1.29.683-2.372.529-3.632.108-11.269-3.759-17.312 16.354 1.727 16.354 8.52.001 9.715-4.24 13.307-2.643z"/><path d="m274.352 140.349c1.463-.65 2.662-.339 3.913.32 4.877 2.584 10.615 3.005 15.726 1.301 10.694-3.572 5.639-18.745-5.063-15.178-1.365.456-2.423.133-3.552-.462-5.474-2.898-11.863-3.117-17.521-.603-4.038 1.795-5.855 6.522-4.062 10.56s6.521 5.856 10.559 4.062z"/><path d="m240.755 311.67c-4.288 1.065-6.9 5.405-5.834 9.693 1.066 4.287 5.404 6.899 9.693 5.834 50.42-12.527 80.454 54.052 38.688 83.873h-54.605c-16.701-11.909-23.21-32.624-17.894-51.212 1.215-4.248-1.243-8.677-5.491-9.892-4.248-1.214-8.676 1.244-9.892 5.491-6.944 24.275 1.131 51.403 22.577 67.596v9.947c0 4.418 3.582 8 8 8s8-3.582 8-8v-5.93h3v6.119c0 4.418 3.582 8 8 8s8-3.582 8-8v-6.119h5v6.119c0 4.418 3.582 8 8 8s8-3.582 8-8v-6.119h4v5.93c0 4.418 3.582 8 8 8s8-3.582 8-8v-9.943c15.735-11.89 25-30.337 25-50.246.001-40.675-38.309-71.063-78.242-61.141z"/><path d="m217.582 341.455c6.887 0 10.834-8.392 5.802-13.604-3.059-3.167-8.113-3.255-11.295-.214-5.34 5.162-1.562 13.818 5.493 13.818z"/><path d="m255.998 389c-4.275 0-8 3.396-8 8.108 0 4.418 3.582 8 8 8s8-3.582 8-8c0-4.712-3.725-8.108-8-8.108z"/><path d="m233.998 357c-8.822 0-16 7.178-16 16s7.178 16 16 16 16-7.178 16-16-7.178-16-16-16z"/><path d="m277.998 389c8.822 0 16-7.178 16-16s-7.178-16-16-16-16 7.178-16 16 7.178 16 16 16z"/></svg>